PathFileType	4	(X/Y/Z)	C:/Users/beibeiliu/ov580/test_trc/User2\sequence.3_training_dense_right.trc
DataRate	CameraRate	NumFrames	NumMarkers	Units	OrigDataRate	OrigDataStartFrame	OrigNumFrames
120	120	8	19	mm	120	172	343
Frame#	Time	ThumbCMC			ThumbMCP			ThumbIP			ThumbTip			IndexMCP			IndexPIP			IndexTip			MiddleMCP			MiddlePIP			MiddleTip			RingMCP			RingPIP			RingTip			PinkyMCP			PinkyPIP			PinkyTip			BackHand1			BackHand2			BackHand3	
		X0	Y0	Z0	X1	Y1	Z1	X2	Y2	Z2	X3	Y3	Z3	X4	Y4	Z4	X5	Y5	Z5	X6	Y6	Z6	X7	Y7	Z7	X8	Y8	Z8	X9	Y9	Z9	X10	Y10	Z10	X11	Y11	Z11	X12	Y12	Z12	X13	Y13	Z13	X14	Y14	Z14	X15	Y15	Z15	X16	Y16	Z16	X17	Y17	Z17	X18	Y18	Z18	
171	1.425	40.3294	24.9527	59.2261	29.6572	0.0456468	36.5805	35.024	-20.1814	4.23779	53.0938	-30.4282	-11.9128	43.7477	19.8668	-17.2262	38.4029	-11.0805	-10.1778	43.0221	1.19039	24.8219	63.9066	5.54685	-20.4969	56.3296	-22.9226	-1.33406	60.9132	-0.504405	32.5879	82.9048	-8.27406	-8.75924	67.5833	-27.7335	13.4407	75.1965	-2.58573	41.1284	94.4797	-17.3936	2.08796	80.6348	-28.9656	27.6582	85.2675	-0.218567	50.9566	103.846	38.0263	27.6556	110.963	42.8808	60.2458	73.2805	54.8465	51.2701	
172	1.43333	41.7224	23.621	62.8121	27.5387	-1.41581	39.5341	28.4083	-22.5403	6.47696	51.4231	-29.1346	-11.4535	38.8345	21.9104	-12.5763	32.556	-10.8921	-5.5854	40.7767	0.855448	29.3949	58.1245	8.75783	-17.4879	49.3721	-21.5318	0.987508	58.9913	-2.99987	33.279	77.0885	-8.39406	-7.83505	69.0449	-29.3574	11.6855	69.449	-4.38086	40.6262	98.2442	-14.1082	3.24088	81.0941	-29.1226	31.2174	82.9189	-0.54285	49.6052	101.522	39.0359	27.9345	107.756	44.3332	61.9936	74.8577	53.5774	53.2023	
173	1.44167	39.6865	23.8876	70.9806	23.3315	-0.532943	47.7219	19.9045	-20.7534	14.5184	41.1086	-29.151	-7.54216	28.6143	20.3821	-7.49348	27.4633	-10.2404	-1.72148	39.1726	-0.528147	33.1081	52.4363	9.29027	-13.1426	43.239	-21.24	3.45995	52.6651	-1.58534	38.4874	70.1463	-4.88359	-4.67734	60.2605	-26.553	15.6727	66.7419	-2.96784	45.0066	90.4011	-11.7078	4.98532	73.9332	-26.8357	30.0409	76.8119	-1.64169	54.0933	94.9555	39.906	33.0354	106.062	46.9142	65.8799	64.8668	54.9351	57.9208	
174	1.45	33.6005	24.3559	81.2658	15.4929	-0.333988	55.2639	10.5982	-19.6806	28.9867	25.9294	-29.6224	1.42713	16.4796	21.2961	2.0401	14.355	-8.97812	8.23726	30.1545	0.766354	42.267	40.8053	12.0309	-5.42556	34.5992	-19.3843	7.88663	42.0135	-3.11019	45.9466	58.6035	-3.07202	-0.459545	52.6917	-26.3484	24.6283	62.0821	-3.37198	50.7005	76.7507	-9.77378	8.3162	66.9583	-25.2339	35.2425	71.5709	1.80916	56.1934	85.8942	44.4561	34.0571	101.802	46.9928	67.0305	60.7304	54.5445	64.6334	
175	1.45833	28.2692	24.1696	88.2972	7.45234	-0.220205	66.0464	-2.34726	-19.1135	37.2287	13.6742	-26.6349	15.2929	5.14204	23.4782	13.8426	2.5332	-8.46854	17.9677	18.2137	1.41216	51.7561	23.6155	13.92	3.85258	20.9249	-20.2242	20.8724	38.2845	-4.20595	50.6731	44.2494	-4.37625	5.98946	40.566	-24.959	29.4967	50.674	-4.80262	53.8009	62.4772	-12.0028	12.6738	55.4379	-22.5572	41.9888	66.1481	-0.184126	62.2856	78.9868	44.0909	37.9605	91.8312	46.7629	70.5845	54.1825	56.4652	67.9419	
176	1.46667	25.2897	25.0121	95.1794	1.87263	1.72743	74.884	-10.9405	-17.8267	44.9754	5.10509	-23.6527	21.6369	-4.99533	23.025	21.1504	-9.64554	-7.03414	28.5305	9.09001	-0.330491	57.7734	12.2699	12.1833	9.35662	10.7883	-18.2843	26.7606	30.5702	-1.38343	57.2245	28.7552	-2.69375	12.3395	28.1348	-23.5034	31.9034	45.1383	-0.778265	59.828	51.2503	-8.70535	16.644	51.0359	-24.4421	45.2862	61.1597	-0.00431703	64.0061	66.3081	43.1381	37.5617	87.1307	48.6787	71.1196	47.2839	54.637	73.2637	
177	1.475	20.7945	24.6412	100.84	-3.62234	-0.0210317	80.544	-11.9822	-14.9894	47.5885	-5.96372	-25.592	21.9088	-16.3962	25.4422	28.85	-12.9839	-6.19869	33.204	5.39274	1.2983	61.1325	6.64235	16.9283	14.5908	1.90306	-16.4476	32.0849	23.6292	2.23054	62.4032	26.4659	-1.4325	13.5459	24.5562	-24.3639	35.0633	38.357	-1.01057	61.5307	46.9228	-7.7483	18.4898	40.5199	-21.976	46.6997	52.0597	5.62687	63.9926	61.9669	45.4455	44.1757	83.7852	48.9811	71.5443	43.136	57.4039	78.5608	
178	1.48333	20.5092	25.0423	99.4859	-5.94559	0.928969	76.1042	-19.3435	-16.6389	47.9646	-8.3715	-22.8171	20.0368	-17.0935	29.2593	30.4954	-19.0415	-3.97192	30.7901	2.41982	2.33319	61.805	2.20395	18.0467	15.5143	-1.70239	-14.7259	27.894	20.3417	4.32043	60.9291	18.957	-0.856353	14.5293	22.8398	-23.6218	33.6501	36.582	-1.5334	59.3825	40.823	-3.8467	18.6506	37.1274	-20.84	46.6487	50.9842	2.37557	64.8855	57.1693	44.2433	43.1035	79.9961	48.8521	69.0755	41.6122	54.9225	75.7253	
